#N canvas 842 105 208 329 10;
#X obj 22 225 osc~;
#X obj 22 201 line~;
#X obj 22 20 dumpOSC 7702;
#X obj 22 92 unpack f f;
#X floatatom 22 115 5 0 0 0 - - -;
#X floatatom 80 115 5 0 0 0 - - -;
#X obj 22 263 output~;
#X obj 22 44 OSCroute /prefix1;
#X obj 80 225 osc~;
#X obj 80 201 line~;
#X obj 41 68 print;
#X obj 46 142 delay 100;
#X msg 46 165 0 500;
#X connect 0 0 6 0;
#X connect 0 0 6 1;
#X connect 1 0 0 0;
#X connect 2 0 7 0;
#X connect 3 0 4 0;
#X connect 3 1 5 0;
#X connect 4 0 1 0;
#X connect 4 0 11 0;
#X connect 5 0 9 0;
#X connect 5 0 11 0;
#X connect 7 0 10 0;
#X connect 7 0 3 0;
#X connect 8 0 6 0;
#X connect 8 0 6 1;
#X connect 9 0 8 0;
#X connect 11 0 12 0;
#X connect 12 0 1 0;
#X connect 12 0 9 0;
